Coordinates
version=1
nRows=19
nColumns=36
inDegrees=yes

Units are S.I. units (second, meters, Newtons, ...)
If the header above contains a line with 'inDegrees', this indicates whether rotational values are in degrees (yes) or radians (no).

endheader
time	pelvis_tilt	pelvis_list	pelvis_rotation	pelvis_tx	pelvis_ty	pelvis_tz	hip_flexion_r	hip_adduction_r	hip_rotation_r	knee_angle_r	knee_angle_r_beta	ankle_angle_r	subtalar_angle_r	mtp_angle_r	hip_flexion_l	hip_adduction_l	hip_rotation_l	knee_angle_l	knee_angle_l_beta	ankle_angle_l	subtalar_angle_l	mtp_angle_l	lumbar_extension	lumbar_bending	lumbar_rotation	arm_flex_r	arm_add_r	arm_rot_r	elbow_flex_r	pro_sup_r	arm_flex_l	arm_add_l	arm_rot_l	elbow_flex_l	pro_sup_l
     -1.13000000	     -5.65490629	     -2.57778476	     -4.48639398	     -1.27222003	      1.12390631	     -0.24747052	      1.11540268	      8.61034993	     -2.95350995	      9.39183430	      0.16391843	     -1.49309974	     -0.81582722	     -6.13476690	     35.98870550	     -4.23669985	     -0.93234163	     32.56140849	      0.56830379	     -0.04762763	    -16.69376853	     -6.13476690	    -10.62260225	      2.46506399	     -1.90915868	     -0.48174772	     -7.73350747	     -4.75744193	     49.58830772	     90.43690696	      4.38746072	     -2.10319715	     -5.14515878	     44.48960726	     89.30840436
     -1.12000000	     -5.96654060	     -3.02744748	     -4.18724070	     -1.26154303	      1.12415424	     -0.24747745	      0.93741870	      9.03057067	     -3.31935733	     10.03045443	      0.17506446	     -2.09896756	     -1.38853209	     -6.16788397	     36.88161953	     -4.58542922	     -0.75669421	     32.09918937	      0.56023654	      1.28577637	    -14.89987222	     -6.16788397	    -10.06575541	      2.64107824	     -2.42115520	     -0.48760077	     -7.53696262	     -5.80565385	     47.54365540	     89.75905387	      4.20102857	     -1.93479009	     -6.64945950	     43.21553150	     89.16932007
     -1.11000000	     -6.39519435	     -3.53307848	     -3.79015617	     -1.25109593	      1.12371616	     -0.24773423	      0.90822310	      9.49736983	     -4.22768554	     10.67595285	      0.18633053	     -2.52416556	     -1.33975351	     -6.48456830	     37.92841050	     -4.88460633	     -0.38896380	     31.57695832	      0.55112189	      2.63428927	    -13.17102094	     -6.48456830	     -9.51162799	      2.89151320	     -3.61695837	     -0.18619426	     -7.35666108	     -6.52375033	     45.64215428	     91.33882741	      3.21174879	     -1.47398303	    -10.64953978	     43.33886057	     94.87207880
     -1.10000000	     -6.88373142	     -3.94041040	     -3.50732443	     -1.24097963	      1.12279125	     -0.24754926	      0.93754125	      9.93944331	     -4.82406728	     11.22247122	      0.19586907	     -3.24852609	     -1.90698925	     -6.49893934	     38.89991159	     -5.16182355	     -0.17774976	     30.74322556	      0.53657051	      3.93582296	    -11.38394149	     -6.49893934	     -8.82801007	      3.01365707	     -4.05456279	     -0.49149189	     -7.21251897	     -7.60048554	     44.55984617	     90.22634819	      2.72836539	     -1.54821792	    -11.71260315	     42.24938690	     94.04215676
     -1.09000000	     -7.37316321	     -4.27522323	     -3.23017757	     -1.23127000	      1.12136794	     -0.24726424	      0.98073492	     10.30948660	     -5.73159384	     11.64386959	      0.20322386	     -3.68455255	     -2.05056993	     -6.49325298	     39.76580501	     -5.34339246	      0.05848385	     29.64437907	      0.51739202	      5.08510809	     -9.79535722	     -6.49325298	     -8.17918348	      3.01083886	     -4.50593862	     -0.88963527	     -7.12726788	     -8.49327480	     43.92741011	     89.88082322	      2.05276218	     -1.73031777	    -12.88821167	     41.30065047	     94.05162070
     -1.08000000	     -7.80762895	     -4.54032738	     -2.98706374	     -1.22200624	      1.11966418	     -0.24683008	      0.98592151	     10.61430144	     -6.69018350	     11.89227674	      0.20755938	     -3.72651921	     -2.00679823	     -6.52478865	     40.45212523	     -5.44443630	      0.34740134	     28.28940138	      0.49374320	      5.98699379	     -8.48596562	     -6.52478865	     -7.65096879	      2.89769534	     -4.92907951	     -1.38975420	     -7.04350107	     -9.29229031	     43.91622741	     89.81296369	      1.32509795	     -1.97544740	    -14.02021750	     40.32173095	     94.42934019
     -1.07000000	     -8.26379990	     -4.74842505	     -2.76072101	     -1.21299898	      1.11763387	     -0.24614281	      1.03932729	     10.88101337	     -7.57135900	     11.94329612	      0.20844984	     -3.18786702	     -1.95376880	     -6.57605912	     41.08537469	     -5.50114214	      0.66748590	     26.80929984	      0.46791055	      6.70084332	     -7.31415074	     -6.57605912	     -7.15498004	      2.65167805	     -5.24884367	     -2.08752752	     -6.91925733	    -10.14192559	     44.51074833	     89.92114712	      0.68007441	     -2.34989336	    -14.95958260	     39.21274914	     94.84567668
     -1.06000000	     -8.70229343	     -4.90313579	     -2.57926715	     -1.20405785	      1.11538642	     -0.24530701	      1.07182482	     11.10147226	     -8.19021037	     11.75471359	      0.20515845	     -2.20398183	     -1.95419380	     -6.72613940	     41.68200859	     -5.55256199	      0.89152089	     25.35540033	      0.44253522	      7.27882754	     -6.39516280	     -6.72613940	     -6.70053617	      2.28740226	     -5.22779561	     -3.03859932	     -6.68493542	    -11.92097678	     45.53557028	     92.41269966	      0.33769887	     -2.57940086	    -16.33990026	     38.04382532	     97.77293454
     -1.05000000	     -9.06654128	     -4.90561992	     -2.46764982	     -1.19501516	      1.11321702	     -0.24421956	      1.08678019	     11.17935821	     -8.38163568	     11.49913972	      0.20069785	     -0.34847500	     -2.36032908	     -6.78427014	     42.05723866	     -5.51937604	      0.94879530	     23.72887740	      0.41414704	      7.48956778	     -5.59376412	     -6.78427014	     -6.31483473	      1.72732416	     -5.51313947	     -3.71608618	     -6.53248841	    -12.32812598	     46.41926938	     91.36348566	      0.12842346	     -3.00440231	    -17.05759633	     36.51382482	     96.51554746
     -1.04000000	     -9.25941600	     -4.90984451	     -2.26751383	     -1.18573619	      1.11107103	     -0.24338281	      0.86433525	     11.21683509	     -8.73550461	     11.04001551	      0.19268462	      2.15498230	     -2.12317416	     -6.84402237	     42.24746089	     -5.42142622	      1.05194747	     22.12441947	      0.38614396	      7.63393391	     -4.98551776	     -6.84402237	     -6.17324343	      1.15325127	     -5.57730532	     -4.55017846	     -6.31216484	    -13.42904293	     47.60281245	     91.20737329	      0.17528894	     -3.33459297	    -17.89883051	     35.29115696	     96.19612398
     -1.03000000	     -9.55329206	     -4.89345154	     -2.13108930	     -1.17617385	      1.10850427	     -0.24250207	      0.73353987	     11.24980876	     -8.77767991	     10.53646282	      0.18389597	      4.80679885	     -2.02304038	     -7.00014519	     42.49320494	     -5.34194231	      1.00239329	     20.46324702	      0.35715104	      7.69986975	     -4.35504624	     -7.00014519	     -5.90525084	      0.56469866	     -5.51322602	     -5.42204034	     -5.79419725	    -15.55930245	     48.75927151	     95.04113946	      0.38030607	     -3.46516981	    -19.68747848	     34.22491144	     99.88947313
     -1.02000000	     -9.64912916	     -4.82471420	     -1.96168588	     -1.16626942	      1.10605378	     -0.24179506	      0.28572108	     11.22471503	     -8.73986952	      9.91268525	      0.17300900	      7.58111659	     -1.76080031	     -7.05421450	     42.42376937	     -5.16713946	      0.92809173	     18.65215347	      0.32554149	      7.63825755	     -3.90737719	     -7.05421450	     -5.82376529	     -0.11032774	     -5.64222307	     -5.99016128	     -5.56360890	    -16.20777769	     49.30405323	     94.15174036	      0.54703398	     -3.72021074	    -20.56268856	     33.32872856	     98.84482642
     -1.01000000	     -9.71449720	     -4.74040823	     -1.81498998	     -1.15621680	      1.10351415	     -0.24127103	     -0.28401165	     11.19071373	     -8.51086145	      9.24947804	      0.16143385	      9.99629374	     -1.53445336	     -7.09981334	     42.22719596	     -4.95628110	      0.83800562	     16.70286681	      0.29152002	      7.48930884	     -3.52903497	     -7.09981334	     -5.77851997	     -0.72149298	     -5.72036898	     -6.42004907	     -5.32064817	    -16.90030519	     49.42008629	     93.79923559	      0.86027209	     -3.95221498	    -21.35195541	     32.46264896	     98.34003188
     -1.00000000	     -9.67033899	     -4.62731382	     -1.70892250	     -1.14590494	      1.10124344	     -0.24066445	     -1.09543249	     11.15973354	     -7.97006478	      8.54192951	      0.14908479	     11.95666355	     -1.61601136	     -7.13326305	     41.81124222	     -4.73046224	      0.71846270	     14.68965008	      0.25638276	      7.18938700	     -3.31174512	     -7.13326305	     -5.80548403	     -1.37506370	     -5.71342089	     -6.72859940	     -5.13183909	    -17.33184738	     49.02004712	     93.59811536	      1.16738491	     -4.17614994	    -22.02741956	     31.68824098	     97.92578347
     -0.99000000	     -9.53634369	     -4.55037750	     -1.60019515	     -1.13535668	      1.09942593	     -0.24013375	     -2.13806995	     11.16867400	     -7.47228306	      7.78396411	      0.13585580	     13.56988632	     -1.43433203	     -7.16698589	     41.28604158	     -4.52526601	      0.67458266	     12.81583882	      0.22367858	      6.88314605	     -3.21045176	     -7.16698589	     -5.92715205	     -1.92106949	     -5.76356378	     -6.84443807	     -4.96461668	    -17.65003456	     48.17912474	     93.38189011	      1.36155921	     -4.36702893	    -22.61511021	     31.15575701	     97.54916944
     -0.98000000	     -9.35069277	     -4.53078218	     -1.44989445	     -1.12447472	      1.09828574	     -0.23958018	     -3.33903466	     11.25282528	     -7.03045777	      7.01393967	      0.12241634	     14.77712982	     -1.12084261	     -7.20583653	     40.73293850	     -4.36089259	      0.70707845	     11.21472772	      0.19573392	      6.63150352	     -3.08741539	     -7.20583653	     -6.07837250	     -2.36636934	     -5.97687977	     -6.79456389	     -4.73548011	    -18.13418856	     47.03710776	     94.26344917	      1.40417936	     -4.53937499	    -23.52667986	     30.84439590	     98.37693525
     -0.97000000	     -9.06536529	     -4.44730860	     -1.41364575	     -1.11308127	      1.09831768	     -0.23882212	     -4.72082378	     11.27509049	     -6.22050152	      6.27049675	      0.10944081	     15.21132780	     -1.37449922	     -7.21474424	     40.00526907	     -4.22989328	      0.71452058	      9.83319897	      0.17162170	      6.21950797	     -3.29087669	     -7.21474424	     -6.30599976	     -2.89192417	     -5.86573941	     -6.76163208	     -4.59428884	    -18.31298393	     45.49305424	     94.53651795	      1.54995098	     -4.73967317	    -23.93154008	     30.45507974	     98.66563290
     -0.96000000	     -8.64334613	     -4.35400674	     -1.34840253	     -1.10106632	      1.09946681	     -0.23806153	     -6.31304818	     11.27406873	     -5.55043454	      5.51801796	      0.09630758	     15.11670154	     -1.52616828	     -7.22289731	     39.14614293	     -4.09809280	      0.78779939	      8.80977664	      0.15375961	      5.79821278	     -3.69415199	     -7.22289731	     -6.67814332	     -3.42105785	     -5.89234840	     -6.62497535	     -4.40746843	    -18.37364517	     43.86251633	     94.80048194	      1.58025189	     -4.96743157	    -24.28363719	     30.20178388	     98.95636313
     -0.95000000	     -8.64835871	     -4.43252464	     -1.30944311	     -1.08835709	      1.10035718	     -0.23738500	     -7.38677686	     11.43345092	     -5.07720945	      4.97031866	      0.08674843	     14.84106016	     -1.33878659	     -7.22448514	     38.92593609	     -4.15617268	      0.87670020	      8.43450863	      0.14720995	      5.66310633	     -3.84500920	     -7.22448514	     -6.47188040	     -3.65446772	     -5.80289398	     -7.02008563	     -4.31185025	    -18.37454586	     43.21525937	     94.83402487	      1.36307563	     -5.08787642	    -24.37915875	     30.14401882	     98.98311462
